<svg width="470" height="364" viewBox="0 0 470 364" fill="none" xmlns="http://www.w3.org/2000/svg">
<g clip-path="url(#clip0_152_2466)">
<path d="M20.8437 353.617C35.4936 364.179 54.4787 364.709 72.8299 363.412C75.3924 363.231 77.9368 363.018 80.4576 362.789C80.4728 362.785 80.4928 362.787 80.5083 362.783C80.6294 362.771 80.7508 362.76 80.8667 362.753C81.387 362.704 81.9075 362.656 82.423 362.607L82.3012 362.839L81.9191 363.561C82.0564 363.319 82.1936 363.083 82.3309 362.841C82.3713 362.769 82.4166 362.697 82.4568 362.624C87.2107 354.345 91.9258 345.761 93.1285 336.308C94.3717 326.495 90.8779 315.383 82.2483 310.56C81.1165 309.93 79.918 309.427 78.6749 309.063C78.1588 308.906 77.6357 308.778 77.1067 308.666C73.8703 307.947 70.5008 308.103 67.3448 309.119C64.1887 310.135 61.3601 311.974 59.1496 314.447C56.9392 316.92 55.4268 319.937 54.7679 323.189C54.109 326.44 54.3273 329.809 55.4006 332.948C48.0842 325.44 49.449 313.26 51.9728 303.081C54.5015 292.901 57.5626 281.574 52.4196 272.431C49.5606 267.342 44.5329 264.185 38.8907 262.913C38.7176 262.876 38.5448 262.838 38.3713 262.806C31.6488 261.443 24.6599 262.669 18.8008 266.238C8.01238 273.041 2.47129 285.942 0.672887 298.578C-2.22468 318.913 4.18767 341.607 20.8437 353.617Z" fill="#F2F2F2"/>
<path d="M25.5738 321.02C25.999 325.505 27.0757 329.904 28.7696 334.079C30.3308 337.773 32.435 341.213 35.0126 344.284C40.2779 350.623 47.2402 355.388 54.8013 358.564C60.5828 360.933 66.6404 362.562 72.83 363.412C75.3925 363.231 77.9369 363.018 80.4577 362.789C80.4729 362.785 80.4929 362.787 80.5084 362.783C80.6295 362.771 80.7509 362.76 80.8668 362.753C81.3871 362.704 81.9076 362.656 82.4231 362.607L82.3013 362.839L81.9192 363.561C82.0565 363.319 82.1937 363.083 82.3311 362.841C82.3715 362.769 82.4167 362.696 82.4569 362.624C77.8165 357.997 74.3519 352.324 72.3534 346.081C70.3548 339.839 69.8805 333.207 70.9703 326.743C72.1107 320.324 74.7507 314.266 78.6751 309.063C78.159 308.906 77.6359 308.778 77.1068 308.666C75.6154 310.706 74.3071 312.875 73.1974 315.146C69.2153 323.246 67.9449 332.413 69.5742 341.292C71.0889 349.326 74.8626 356.761 80.4523 362.724C79.9628 362.689 79.4686 362.649 78.985 362.605C69.8246 361.828 60.6829 359.858 52.3744 355.821C45.2724 352.454 39.1067 347.391 34.4203 341.078C29.3883 334.132 27.171 325.778 26.7901 317.288C26.3862 308.198 27.5648 298.948 29.6376 290.108C31.7543 281.045 34.971 272.276 39.2163 263.996C39.3112 263.808 39.3303 263.591 39.2698 263.389C39.2092 263.188 39.0735 263.017 38.8908 262.913C38.7385 262.81 38.5519 262.772 38.3715 262.806C38.2832 262.829 38.2013 262.872 38.1319 262.932C38.0625 262.991 38.0075 263.066 37.9708 263.149C37.4471 264.172 36.9332 265.196 36.4387 266.231C32.3211 274.852 29.2895 283.952 27.4138 293.322C25.5928 302.36 24.6208 311.815 25.5738 321.02Z" fill="white"/>
<path d="M460.574 312.951H218.282C215.783 312.948 213.387 311.954 211.62 310.185C209.853 308.417 208.859 306.019 208.856 303.518V9.43293C208.859 6.93202 209.853 4.53436 211.62 2.76595C213.387 0.997542 215.783 0.00281538 218.282 0H460.574C463.073 0.00281538 465.469 0.997542 467.236 2.76595C469.003 4.53436 469.997 6.93202 470 9.43293V303.518C469.997 306.019 469.003 308.417 467.236 310.185C465.469 311.954 463.073 312.948 460.574 312.951ZM218.282 1.10976C216.077 1.11225 213.963 1.98995 212.404 3.55031C210.844 5.11067 209.967 7.22625 209.965 9.43293V303.518C209.967 305.725 210.844 307.841 212.404 309.401C213.963 310.961 216.077 311.839 218.282 311.841H460.574C462.779 311.839 464.893 310.961 466.453 309.401C468.012 307.841 468.889 305.725 468.891 303.518V9.43293C468.889 7.22625 468.012 5.11067 466.453 3.55031C464.893 1.98995 462.779 1.11225 460.574 1.10976H218.282Z" fill="#3F3D56"/>
<path d="M469.445 23.0775H209.41V24.1873H469.445V23.0775Z" fill="#3F3D56"/>
<path d="M222.163 16.6464C224.612 16.6464 226.598 14.6589 226.598 12.2073C226.598 9.75573 224.612 7.76831 222.163 7.76831C219.713 7.76831 217.727 9.75573 217.727 12.2073C217.727 14.6589 219.713 16.6464 222.163 16.6464Z" fill="#3F3D56"/>
<path d="M236.024 16.6464C238.474 16.6464 240.46 14.6589 240.46 12.2073C240.46 9.75573 238.474 7.76831 236.024 7.76831C233.574 7.76831 231.588 9.75573 231.588 12.2073C231.588 14.6589 233.574 16.6464 236.024 16.6464Z" fill="#3F3D56"/>
<path d="M249.885 16.6464C252.334 16.6464 254.32 14.6589 254.32 12.2073C254.32 9.75573 252.334 7.76831 249.885 7.76831C247.435 7.76831 245.449 9.75573 245.449 12.2073C245.449 14.6589 247.435 16.6464 249.885 16.6464Z" fill="#3F3D56"/>
<path d="M423.016 67.1402H250.029C248.117 67.1402 246.284 66.3802 244.932 65.0274C243.581 63.6747 242.821 61.8399 242.821 59.9268C242.821 58.0137 243.581 56.1789 244.932 54.8261C246.284 53.4734 248.117 52.7134 250.029 52.7134H423.016C424.928 52.7134 426.761 53.4734 428.113 54.8261C429.465 56.1789 430.224 58.0137 430.224 59.9268C430.224 61.8399 429.465 63.6747 428.113 65.0274C426.761 66.3802 424.928 67.1402 423.016 67.1402ZM250.029 53.8231C248.412 53.8231 246.86 54.4662 245.717 55.6109C244.573 56.7555 243.93 58.308 243.93 59.9268C243.93 61.5456 244.573 63.0981 245.717 64.2427C246.86 65.3874 248.412 66.0305 250.029 66.0305H423.016C424.634 66.0305 426.185 65.3874 427.329 64.2427C428.473 63.0981 429.115 61.5456 429.115 59.9268C429.115 58.308 428.473 56.7555 427.329 55.6109C426.185 54.4662 424.634 53.8231 423.016 53.8231H250.029Z" fill="#3F3D56"/>
<path d="M314.755 168.683H246.558C244.059 168.68 241.664 167.685 239.897 165.917C238.13 164.149 237.136 161.751 237.133 159.25V103.207C237.136 100.706 238.13 98.3088 239.897 96.5404C241.664 94.772 244.059 93.7772 246.558 93.7744H314.755C317.254 93.7772 319.65 94.772 321.417 96.5404C323.184 98.3088 324.178 100.706 324.181 103.207V159.25C324.178 161.751 323.184 164.149 321.417 165.917C319.65 167.685 317.254 168.68 314.755 168.683ZM246.558 94.8842C244.353 94.8867 242.24 95.7644 240.68 97.3247C239.121 98.8851 238.244 101.001 238.242 103.207V159.25C238.244 161.457 239.121 163.572 240.68 165.133C242.24 166.693 244.353 167.571 246.558 167.573H314.755C316.96 167.571 319.074 166.693 320.633 165.133C322.192 163.572 323.069 161.457 323.072 159.25V103.207C323.069 101.001 322.192 98.8851 320.633 97.3247C319.074 95.7644 316.96 94.8867 314.755 94.8842H246.558Z" fill="#3F3D56"/>
<path d="M432.298 96.5488H364.101C359.201 96.5488 355.229 100.524 355.229 105.427V161.47C355.229 166.373 359.201 170.348 364.101 170.348H432.298C437.197 170.348 441.169 166.373 441.169 161.47V105.427C441.169 100.524 437.197 96.5488 432.298 96.5488Z" fill="#F2F2F2"/>
<path d="M314.755 273H246.558C244.059 272.997 241.664 272.002 239.897 270.234C238.13 268.466 237.136 266.068 237.133 263.567V207.524C237.136 205.023 238.13 202.626 239.897 200.857C241.664 199.089 244.059 198.094 246.558 198.091H314.755C317.254 198.094 319.65 199.089 321.417 200.857C323.184 202.626 324.178 205.023 324.181 207.524V263.567C324.178 266.068 323.184 268.466 321.417 270.234C319.65 272.002 317.254 272.997 314.755 273ZM246.558 199.201C244.353 199.204 242.24 200.081 240.68 201.642C239.121 203.202 238.244 205.318 238.242 207.524V263.567C238.244 265.774 239.121 267.889 240.68 269.45C242.24 271.01 244.353 271.888 246.558 271.89H314.755C316.96 271.888 319.074 271.01 320.633 269.45C322.192 267.889 323.069 265.774 323.072 263.567V207.524C323.069 205.318 322.192 203.202 320.633 201.642C319.074 200.081 316.96 199.204 314.755 199.201H246.558Z" fill="#3F3D56"/>
<path d="M432.298 200.866H364.101C359.201 200.866 355.229 204.841 355.229 209.744V265.787C355.229 270.69 359.201 274.665 364.101 274.665H432.298C437.197 274.665 441.169 270.69 441.169 265.787V209.744C441.169 204.841 437.197 200.866 432.298 200.866Z" fill="#F2F2F2"/>
<path d="M263.686 155.129C263.674 155.129 263.661 155.129 263.649 155.128L255.892 154.841C255.65 154.833 255.419 154.739 255.242 154.574C255.064 154.41 254.952 154.186 254.926 153.946C254.392 149.179 252.195 124.886 261.399 114.789C262.702 113.331 264.313 112.182 266.114 111.425C267.916 110.667 269.864 110.321 271.816 110.41C271.895 110.415 271.975 110.398 272.045 110.362C272.116 110.325 272.175 110.27 272.216 110.202L274.094 107.248C274.196 107.088 274.342 106.96 274.514 106.879C274.685 106.797 274.877 106.766 275.065 106.787C276.571 106.969 284.245 107.829 287.472 106.894C287.662 106.838 287.865 106.839 288.055 106.897C288.244 106.956 288.413 107.069 288.538 107.222L291.004 110.238C291.047 110.293 291.101 110.336 291.164 110.365C291.227 110.394 291.295 110.408 291.364 110.405C292.618 110.38 297.016 110.623 300.865 114.931C305.032 119.596 309.333 130.121 306.156 153.77C306.123 154.013 306.003 154.236 305.819 154.398C305.634 154.559 305.398 154.649 305.153 154.65H299.044C298.801 154.648 298.567 154.561 298.384 154.402C298.2 154.243 298.08 154.024 298.044 153.784L296.048 140.003C296.032 139.889 295.973 139.786 295.885 139.714C295.796 139.642 295.683 139.606 295.569 139.613C295.455 139.62 295.348 139.67 295.268 139.752C295.189 139.835 295.144 139.944 295.141 140.059L295.004 146.529C295 146.721 294.941 146.907 294.835 147.067C294.728 147.227 294.579 147.353 294.404 147.432C292.226 148.39 280.718 152.884 268 147.255C267.828 147.178 267.68 147.054 267.574 146.898C267.468 146.742 267.408 146.559 267.399 146.371L267.149 140.492C267.144 140.377 267.096 140.269 267.015 140.188C266.933 140.107 266.824 140.06 266.71 140.056C266.595 140.052 266.483 140.091 266.396 140.166C266.309 140.241 266.254 140.346 266.241 140.46L264.69 154.231C264.661 154.478 264.543 154.705 264.358 154.87C264.173 155.036 263.934 155.128 263.686 155.129Z" fill="#129587"/>
<path d="M295.774 256.653H295.768L265.373 256.46C265.152 256.458 264.939 256.376 264.774 256.229C264.61 256.081 264.504 255.879 264.478 255.659L261.421 229.65C261.402 229.482 261.324 229.327 261.2 229.212C261.075 229.098 260.914 229.032 260.746 229.027C258.333 228.949 252.592 228.398 251.402 224.997C250.342 221.968 253.24 217.501 260.015 211.719C260.131 211.62 260.269 211.552 260.417 211.52C260.565 211.489 260.719 211.495 260.865 211.538C261.01 211.582 261.142 211.661 261.249 211.768C261.356 211.876 261.434 212.009 261.477 212.154L264.994 224.298C265.037 224.444 265.125 224.572 265.246 224.663C265.367 224.755 265.515 224.805 265.666 224.807L294.486 225.001C294.637 225.002 294.784 224.955 294.906 224.866C295.028 224.777 295.118 224.651 295.163 224.507L299.077 212.045C299.12 211.906 299.196 211.779 299.299 211.676C299.402 211.573 299.528 211.496 299.667 211.452C299.806 211.408 299.953 211.398 300.097 211.423C300.24 211.448 300.375 211.507 300.491 211.596C303.161 213.637 311.764 220.644 310.348 225.126C309.606 227.473 306.262 228.781 300.407 229.015C300.239 229.02 300.078 229.086 299.955 229.201C299.831 229.315 299.753 229.47 299.734 229.637L296.675 255.851C296.649 256.072 296.543 256.275 296.377 256.423C296.211 256.571 295.996 256.653 295.774 256.653Z" fill="#129587"/>
<path d="M428.971 147.128C419.42 148.968 410.413 152.96 402.632 158.802C402.238 157.754 401.497 156.872 400.532 156.306C399.873 155.897 399.154 155.594 398.4 155.409C397.715 155.235 397.057 155.651 396.453 156.252C395.757 157.022 395.174 157.887 394.72 158.82C384.282 151.65 368.448 147.074 368.448 147.074V145.64C368.461 145.302 368.495 144.965 368.551 144.632C368.604 144.246 368.672 143.906 368.757 143.489C370.1 136.65 375.411 121.024 375.411 121.024H381.416L393.058 123.444L406.156 122.641L419.348 119.894L421.059 119.536C423.911 121.777 427.149 137.461 428.42 144.139C428.582 144.986 428.707 145.685 428.801 146.2C428.913 146.783 428.971 147.128 428.971 147.128Z" fill="white"/>
<path d="M393.14 215.969C393.14 215.969 390.351 216.667 386.026 228.392C381.7 240.117 380.168 255.267 380.168 255.267C380.168 255.267 377.735 259.389 388.117 259.665C388.117 259.665 387.282 262.387 393.14 261.969C398.998 261.551 398.155 261.556 398.155 261.556C398.155 261.556 401.921 259.182 403.596 259.6C405.27 260.018 406.316 260.16 408.128 261.693C409.94 263.227 415.733 262.602 415.802 261.418C415.849 260.836 415.849 260.251 415.802 259.669C415.802 259.669 424.66 260.229 422.986 253.806C421.312 247.384 419.917 236.843 419.917 236.843C419.917 236.843 415.385 216.253 410.22 215.973C405.055 215.693 393.14 215.969 393.14 215.969Z" fill="white"/>
<path d="M106.809 196.203C115.995 196.203 123.442 188.75 123.442 179.556C123.442 170.363 115.995 162.91 106.809 162.91C97.6223 162.91 90.1753 170.363 90.1753 179.556C90.1753 188.75 97.6223 196.203 106.809 196.203Z" fill="#2F2E41"/>
<path d="M108.206 196.234C115.727 196.234 121.823 190.133 121.823 182.606C121.823 175.079 115.727 168.978 108.206 168.978C100.685 168.978 94.5879 175.079 94.5879 182.606C94.5879 190.133 100.685 196.234 108.206 196.234Z" fill="#FFB8B8"/>
<path d="M160.068 224.058C159.851 224.276 159.653 224.511 159.473 224.76L131.994 223.788L128.851 217.889L119.335 221.472L123.885 232.456C124.253 233.344 124.898 234.088 125.724 234.577C126.55 235.066 127.512 235.274 128.467 235.169L159.562 231.752C160.285 232.688 161.275 233.382 162.401 233.741C163.527 234.1 164.736 234.108 165.866 233.763C166.997 233.418 167.995 232.736 168.73 231.809C169.464 230.882 169.898 229.754 169.976 228.574C170.053 227.393 169.77 226.217 169.164 225.202C168.557 224.187 167.656 223.381 166.58 222.891C165.505 222.4 164.305 222.25 163.142 222.458C161.979 222.667 160.906 223.225 160.068 224.058Z" fill="#FFB8B8"/>
<path d="M115.675 226.776C115.325 226.619 115.013 226.388 114.76 226.099C114.507 225.81 114.319 225.47 114.21 225.102L110.382 212.246C109.551 210.466 109.459 208.428 110.127 206.58C110.795 204.732 112.167 203.224 113.944 202.388C115.721 201.551 117.756 201.454 119.605 202.117C121.453 202.78 122.964 204.149 123.804 205.925L131.219 217.153C131.43 217.473 131.57 217.836 131.629 218.215C131.688 218.595 131.665 218.982 131.561 219.352C131.457 219.722 131.274 220.065 131.025 220.357C130.777 220.65 130.468 220.886 130.121 221.048L117.899 226.76C117.551 226.923 117.173 227.008 116.789 227.011C116.405 227.014 116.025 226.934 115.675 226.776Z" fill="#CCCCCC"/>
<path d="M142.74 357.301L148.71 354.048L139.016 329.455L130.205 334.255L142.74 357.301Z" fill="#FFB8B8"/>
<path d="M140.156 356.18L151.913 349.774C152.897 349.238 153.978 348.901 155.092 348.783C156.206 348.665 157.332 348.767 158.407 349.084C159.481 349.401 160.483 349.927 161.354 350.632C162.226 351.337 162.95 352.206 163.485 353.191L163.618 353.435L144.368 363.922L140.156 356.18Z" fill="#2F2E41"/>
<path d="M77.0451 357.328H83.8421L87.0762 331.089L77.0435 331.089L77.0451 357.328Z" fill="#FFB8B8"/>
<path d="M75.311 355.107L88.6975 355.106C89.8178 355.106 90.9276 355.327 91.9627 355.756C92.9977 356.185 93.9382 356.814 94.7303 357.607C95.5225 358.4 96.1509 359.341 96.5796 360.377C97.0083 361.412 97.229 362.523 97.229 363.644V363.921L75.3114 363.922L75.311 355.107Z" fill="#2F2E41"/>
<path d="M119.284 240.87L121.502 267.505L146.24 341.778C146.338 342.07 146.373 342.379 146.345 342.686C146.316 342.993 146.224 343.29 146.074 343.559C145.925 343.828 145.721 344.063 145.476 344.249C145.231 344.435 144.949 344.568 144.65 344.639L137.068 346.446C136.582 346.561 136.072 346.51 135.619 346.299C135.167 346.089 134.798 345.732 134.574 345.286L102.946 282.5C102.843 282.295 102.679 282.127 102.477 282.02C102.275 281.912 102.044 281.87 101.817 281.898C101.59 281.927 101.377 282.025 101.208 282.18C101.039 282.334 100.922 282.538 100.873 282.761L86.954 346.218C86.8456 346.712 86.5717 347.155 86.1778 347.472C85.7838 347.789 85.2934 347.962 84.7878 347.962H77.7342C77.4405 347.962 77.1495 347.904 76.8785 347.791C76.6074 347.677 76.3616 347.511 76.1553 347.302C75.9491 347.092 75.7865 346.844 75.6772 346.571C75.5678 346.298 75.5138 346.006 75.5183 345.712C76.1647 301.712 74.0324 251.575 91.0072 243.645L93.7794 236.431L119.284 240.87Z" fill="#2F2E41"/>
<path d="M92.9807 238.32L90.1223 221.02C89.6491 218.183 89.8973 215.273 90.8438 212.557C91.7903 209.841 93.4048 207.408 95.5384 205.481C97.624 203.572 100.156 202.22 102.901 201.548C105.647 200.877 108.516 200.908 111.247 201.638C111.409 201.682 111.571 201.727 111.733 201.772C115.092 202.735 118.075 204.706 120.279 207.419C122.483 210.133 123.802 213.458 124.057 216.946C124.603 224.459 124.115 235.358 118.691 244.617L118.586 244.797L92.9807 238.32Z" fill="#CCCCCC"/>
<path d="M121.753 175.363C118.641 177.509 114.947 178.651 111.168 178.636C112.516 179.572 114.051 180.204 115.666 180.489C110.641 181.567 105.448 181.596 100.411 180.574C99.2918 180.395 98.2115 180.023 97.2179 179.477C96.7228 179.2 96.2914 178.822 95.9517 178.367C95.6121 177.913 95.3719 177.392 95.2467 176.838C94.912 174.925 96.4019 173.186 97.9502 172.015C100.321 170.248 103.054 169.031 105.952 168.452C108.85 167.872 111.841 167.944 114.708 168.663C116.58 169.148 118.455 169.966 119.671 171.47C120.887 172.975 121.247 175.294 120.089 176.844L121.753 175.363Z" fill="#2F2E41"/>
<path d="M106.59 162.828C108.168 156.449 102.511 149.362 95.9455 149.495C89.2847 149.629 84.3832 155.653 81.0138 161.405C77.6444 167.157 74.2958 173.677 68.1102 176.153C66.0633 176.973 63.8452 177.271 61.6547 177.021C59.4643 176.772 57.37 175.982 55.5595 174.723C53.7491 173.464 52.2792 171.775 51.2816 169.807C50.284 167.84 49.7898 165.655 49.8434 163.45C49.0129 170.437 50.1636 177.998 54.6665 183.403C59.1694 188.808 67.5481 191.244 73.5705 187.611C77.01 185.537 79.2085 181.931 81.021 178.344C82.8335 174.758 84.4463 170.976 87.1926 168.044C89.939 165.112 94.1855 163.165 98.0075 164.399C99.5246 164.889 100.886 165.843 102.453 166.134C104.021 166.424 105.994 165.679 106.208 164.098L106.59 162.828Z" fill="#2F2E41"/>
<path d="M73.7686 278.488C73.2033 277.825 72.7902 277.046 72.5584 276.206C72.3265 275.366 72.2814 274.486 72.4264 273.626C72.5714 272.767 72.9028 271.95 73.3975 271.233C73.8921 270.516 74.5378 269.916 75.2892 269.475L87.1019 216.486L99.0848 221.408L83.7053 271.947C84.361 273.259 84.5128 274.767 84.1322 276.184C83.7515 277.6 82.8647 278.828 81.6399 279.635C80.4151 280.441 78.9373 280.769 77.4866 280.558C76.0358 280.347 74.7129 279.61 73.7686 278.488Z" fill="#FFB8B8"/>
<path d="M82.4213 224.088C82.2326 223.753 82.1183 223.382 82.0861 222.999C82.0539 222.617 82.1046 222.231 82.2347 221.87L86.7771 209.249C87.1638 207.323 88.2981 205.628 89.9313 204.537C91.5645 203.446 93.5634 203.048 95.4897 203.429C97.4159 203.811 99.1123 204.942 100.207 206.573C101.301 208.205 101.705 210.204 101.329 212.133L100.639 225.573C100.619 225.957 100.517 226.332 100.339 226.672C100.162 227.013 99.9129 227.311 99.6099 227.547C99.3068 227.782 98.9566 227.95 98.583 228.038C98.2094 228.126 97.8212 228.132 97.445 228.056L84.2212 225.395C83.8448 225.32 83.4892 225.164 83.1785 224.938C82.8679 224.713 82.6096 224.422 82.4213 224.088Z" fill="#CCCCCC"/>
<path d="M179.205 218.145L179.009 218.118L179.75 212.723C179.863 211.895 179.644 211.055 179.139 210.389C178.634 209.723 177.886 209.285 177.058 209.171L165.637 207.6C164.809 207.486 163.971 207.706 163.305 208.211C162.64 208.716 162.202 209.465 162.088 210.293L158.023 239.891C157.909 240.719 158.128 241.558 158.633 242.224C159.138 242.891 159.886 243.329 160.714 243.443L172.135 245.014C172.963 245.128 173.801 244.908 174.467 244.403C175.133 243.898 175.57 243.149 175.684 242.32L178.481 221.958L178.678 221.985L179.205 218.145Z" fill="#3F3D56"/>
<path d="M176.699 210.754L175.277 210.558C175.321 210.728 175.322 210.905 175.28 211.075C175.239 211.245 175.156 211.402 175.04 211.533C174.924 211.664 174.777 211.763 174.613 211.824C174.449 211.884 174.273 211.904 174.1 211.88L167.858 211.021C167.685 210.997 167.521 210.931 167.379 210.829C167.237 210.726 167.123 210.59 167.046 210.433C166.97 210.276 166.932 210.103 166.938 209.928C166.944 209.753 166.993 209.582 167.081 209.431L165.753 209.248C165.461 209.208 165.164 209.226 164.879 209.3C164.594 209.375 164.326 209.505 164.092 209.683C163.857 209.862 163.659 210.084 163.511 210.339C163.362 210.593 163.265 210.874 163.225 211.167L159.352 239.357C159.312 239.649 159.33 239.946 159.405 240.231C159.479 240.516 159.609 240.784 159.787 241.019C159.965 241.254 160.188 241.452 160.442 241.6C160.696 241.749 160.978 241.847 161.269 241.887L172.216 243.393C172.805 243.474 173.403 243.317 173.877 242.957C174.351 242.598 174.663 242.064 174.744 241.474L178.616 213.284C178.697 212.694 178.541 212.096 178.181 211.622C177.822 211.147 177.289 210.835 176.699 210.754Z" fill="white"/>
<path d="M168.936 234.159C172.304 234.159 175.035 231.426 175.035 228.055C175.035 224.684 172.304 221.951 168.936 221.951C165.567 221.951 162.837 224.684 162.837 228.055C162.837 231.426 165.567 234.159 168.936 234.159Z" fill="#129587"/>
<path d="M168.331 230.383C168.194 230.384 168.061 230.339 167.951 230.257L167.944 230.252L166.511 229.153C166.444 229.103 166.388 229.039 166.346 228.967C166.304 228.894 166.277 228.814 166.265 228.731C166.254 228.648 166.26 228.563 166.281 228.482C166.303 228.401 166.34 228.325 166.391 228.259C166.442 228.192 166.506 228.136 166.578 228.094C166.651 228.053 166.731 228.025 166.814 228.014C166.897 228.004 166.981 228.009 167.062 228.031C167.143 228.053 167.219 228.091 167.285 228.142L168.214 228.854L170.408 225.991C170.459 225.924 170.522 225.869 170.594 225.827C170.667 225.785 170.747 225.758 170.83 225.747C170.913 225.736 170.997 225.741 171.078 225.763C171.158 225.785 171.234 225.822 171.3 225.873C171.434 225.976 171.522 226.128 171.544 226.295C171.566 226.463 171.521 226.632 171.419 226.767L168.838 230.135C168.778 230.212 168.702 230.275 168.614 230.318C168.526 230.361 168.429 230.384 168.331 230.383Z" fill="white"/>
<path d="M225.147 364H13.9026C13.7555 364 13.6145 363.942 13.5105 363.837C13.4066 363.733 13.3481 363.592 13.3481 363.445C13.3481 363.298 13.4066 363.157 13.5105 363.053C13.6145 362.949 13.7555 362.89 13.9026 362.89H225.147C225.294 362.89 225.435 362.949 225.539 363.053C225.643 363.157 225.701 363.298 225.701 363.445C225.701 363.592 225.643 363.733 225.539 363.837C225.435 363.942 225.294 364 225.147 364Z" fill="#3F3D56"/>
</g>
<defs>
<clipPath id="clip0_152_2466">
<rect width="470" height="364" fill="white"/>
</clipPath>
</defs>
</svg>
