<svg width="542" height="338" viewBox="0 0 542 338" fill="none" xmlns="http://www.w3.org/2000/svg">
<g clip-path="url(#clip0_952_392)">
<path d="M51.1156 327.261C53.514 330.496 56.4872 333.26 59.8864 335.417C60.6093 335.875 61.3514 336.308 62.1065 336.708H79.8741C79.6614 336.282 79.4546 335.849 79.2545 335.417C73.7455 323.786 72.018 310.72 74.3148 298.056C76.6116 285.392 82.8172 273.766 92.0593 264.813C81.3199 268.132 71.3938 274.603 64.9011 283.778C61.7463 288.247 59.5028 293.293 58.2987 298.63C57.2257 287.957 58.931 277.189 63.2488 267.371C54.5297 274.467 47.7398 284.185 45.152 295.124C42.5641 306.069 44.442 318.215 51.1156 327.261Z" fill="#F0F0F0"/>
<path d="M539.191 181.441H418.393C417.648 181.44 416.934 181.144 416.408 180.617C415.881 180.09 415.585 179.376 415.584 178.63V103.866C415.585 103.121 415.881 102.407 416.408 101.88C416.934 101.353 417.648 101.057 418.393 101.056H539.191C539.936 101.057 540.65 101.353 541.176 101.88C541.703 102.407 541.999 103.121 542 103.866V178.63C541.999 179.376 541.703 180.09 541.176 180.617C540.65 181.144 539.936 181.44 539.191 181.441Z" fill="white"/>
<path d="M539.191 181.441H418.393C417.648 181.44 416.934 181.144 416.408 180.617C415.881 180.09 415.585 179.376 415.584 178.63V103.866C415.585 103.121 415.881 102.407 416.408 101.88C416.934 101.353 417.648 101.057 418.393 101.056H539.191C539.936 101.057 540.65 101.353 541.176 101.88C541.703 102.407 541.999 103.121 542 103.866V178.63C541.999 179.376 541.703 180.09 541.176 180.617C540.65 181.144 539.936 181.44 539.191 181.441ZM418.393 102.18C417.946 102.18 417.518 102.358 417.202 102.674C416.886 102.991 416.708 103.419 416.708 103.866V178.63C416.708 179.077 416.886 179.506 417.202 179.822C417.518 180.138 417.946 180.316 418.393 180.317H539.191C539.638 180.316 540.066 180.138 540.382 179.822C540.698 179.506 540.876 179.077 540.876 178.63V103.866C540.876 103.419 540.698 102.991 540.382 102.674C540.066 102.358 539.638 102.18 539.191 102.18H418.393Z" fill="#3F3D56"/>
<path d="M515.312 126.025H442.271C441.601 126.025 440.958 125.758 440.484 125.284C440.01 124.809 439.743 124.166 439.743 123.495C439.743 122.824 440.01 122.181 440.484 121.706C440.958 121.232 441.601 120.965 442.271 120.965H515.312C515.982 120.965 516.626 121.232 517.1 121.706C517.574 122.181 517.84 122.824 517.84 123.495C517.84 124.166 517.574 124.809 517.1 125.284C516.626 125.758 515.982 126.025 515.312 126.025Z" fill="#CCCCCC"/>
<path d="M515.312 143.451H442.271C441.601 143.451 440.958 143.184 440.484 142.71C440.01 142.236 439.743 141.592 439.743 140.921C439.743 140.25 440.01 139.607 440.484 139.133C440.958 138.658 441.601 138.392 442.271 138.392H515.312C515.982 138.392 516.626 138.658 517.1 139.133C517.574 139.607 517.84 140.25 517.84 140.921C517.84 141.592 517.574 142.236 517.1 142.71C516.626 143.184 515.982 143.451 515.312 143.451Z" fill="#CCCCCC"/>
<path d="M508.805 171.081C513.795 171.081 517.841 167.033 517.841 162.041C517.841 157.048 513.795 153 508.805 153C503.815 153 499.77 157.048 499.77 162.041C499.77 167.033 503.815 171.081 508.805 171.081Z" fill="#34D399"/>
<path d="M509.053 157.782V156.92H509.308V157.782C509.669 157.797 510.023 157.884 510.35 158.037C510.588 158.148 510.792 158.319 510.945 158.533C511.086 158.73 511.161 158.967 511.16 159.21C511.165 159.387 511.106 159.56 510.993 159.697C510.944 159.759 510.882 159.809 510.811 159.844C510.74 159.878 510.662 159.896 510.582 159.895C510.524 159.896 510.465 159.885 510.41 159.863C510.356 159.841 510.306 159.807 510.265 159.765C510.223 159.723 510.189 159.672 510.167 159.617C510.144 159.561 510.134 159.502 510.135 159.442C510.135 159.358 510.153 159.275 510.186 159.198L510.288 158.983C510.324 158.893 510.341 158.797 510.339 158.7C510.342 158.55 510.294 158.403 510.203 158.283C510.104 158.158 509.97 158.064 509.818 158.014C509.653 157.96 509.482 157.926 509.308 157.912V161.011L509.365 161.045C509.897 161.327 510.381 161.693 510.798 162.128C510.982 162.346 511.129 162.594 511.231 162.862C511.333 163.121 511.386 163.396 511.387 163.675C511.391 164.035 511.297 164.39 511.115 164.7C510.937 165.003 510.675 165.249 510.362 165.409C510.031 165.571 509.674 165.674 509.308 165.715V166.638H509.053V165.732C508.684 165.729 508.318 165.654 507.977 165.511C507.637 165.384 507.337 165.169 507.108 164.887C506.906 164.635 506.797 164.321 506.799 163.998C506.792 163.771 506.862 163.548 506.998 163.366C507.051 163.287 507.123 163.223 507.207 163.178C507.29 163.133 507.384 163.109 507.479 163.108C507.536 163.106 507.593 163.116 507.646 163.137C507.699 163.158 507.747 163.189 507.787 163.229C507.828 163.27 507.859 163.318 507.88 163.371C507.901 163.424 507.911 163.481 507.909 163.538C507.89 163.712 507.817 163.876 507.7 164.007C507.639 164.088 507.587 164.175 507.544 164.267C507.515 164.339 507.501 164.416 507.502 164.493C507.503 164.7 507.573 164.9 507.703 165.061C507.844 165.242 508.03 165.381 508.244 165.465C508.487 165.56 508.747 165.607 509.008 165.601H509.053V161.901L508.731 161.714C508.425 161.537 508.192 161.389 508.031 161.272C507.874 161.158 507.729 161.029 507.598 160.887C507.272 160.54 507.092 160.082 507.094 159.606C507.092 159.31 507.166 159.019 507.309 158.759C507.449 158.5 507.654 158.283 507.904 158.127C508.252 157.917 508.647 157.798 509.053 157.782ZM509.053 157.906C508.834 157.913 508.618 157.961 508.416 158.048C508.215 158.148 508.049 158.308 507.942 158.506C507.821 158.721 507.759 158.965 507.762 159.213C507.76 159.514 507.852 159.809 508.027 160.055C508.119 160.189 508.231 160.309 508.357 160.412C508.561 160.564 508.775 160.704 508.997 160.83L509.053 160.864V157.906ZM509.308 165.59C509.454 165.578 509.598 165.547 509.737 165.499C509.849 165.456 509.954 165.395 510.047 165.318C510.222 165.169 510.357 164.979 510.442 164.766C510.54 164.53 510.59 164.276 510.588 164.02C510.566 163.61 510.436 163.213 510.211 162.868C509.986 162.524 509.675 162.245 509.308 162.06V165.59Z" fill="white"/>
<path d="M456.903 131.398H336.105C335.36 131.397 334.646 131.1 334.12 130.573C333.593 130.046 333.297 129.332 333.296 128.587V53.8229C333.297 53.0777 333.593 52.3633 334.12 51.8364C334.646 51.3095 335.36 51.0131 336.105 51.0122H456.903C457.647 51.0131 458.361 51.3095 458.888 51.8364C459.415 52.3633 459.711 53.0777 459.712 53.8229V128.587C459.711 129.332 459.415 130.046 458.888 130.573C458.361 131.1 457.647 131.397 456.903 131.398Z" fill="white"/>
<path d="M456.903 131.398H336.105C335.36 131.397 334.646 131.1 334.12 130.573C333.593 130.046 333.297 129.332 333.296 128.587V53.8229C333.297 53.0777 333.593 52.3633 334.12 51.8364C334.646 51.3095 335.36 51.0131 336.105 51.0122H456.903C457.647 51.0131 458.361 51.3095 458.888 51.8364C459.415 52.3633 459.711 53.0777 459.712 53.8229V128.587C459.711 129.332 459.415 130.046 458.888 130.573C458.361 131.1 457.647 131.397 456.903 131.398ZM336.105 52.1365C335.658 52.137 335.23 52.3148 334.914 52.6309C334.598 52.9471 334.42 53.3758 334.42 53.8229V128.587C334.42 129.034 334.598 129.463 334.914 129.779C335.23 130.095 335.658 130.273 336.105 130.273H456.903C457.35 130.273 457.778 130.095 458.094 129.779C458.41 129.463 458.588 129.034 458.588 128.587V53.8229C458.588 53.3758 458.41 52.9471 458.094 52.6309C457.778 52.3148 457.35 52.137 456.903 52.1365H336.105Z" fill="#3F3D56"/>
<path d="M433.025 75.9811H359.984C359.314 75.9811 358.671 75.7146 358.197 75.2402C357.722 74.7658 357.456 74.1224 357.456 73.4515C357.456 72.7806 357.722 72.1372 358.197 71.6628C358.671 71.1884 359.314 70.9219 359.984 70.9219H433.025C433.695 70.9219 434.338 71.1884 434.813 71.6628C435.287 72.1372 435.553 72.7806 435.553 73.4515C435.553 74.1224 435.287 74.7658 434.813 75.2402C434.338 75.7146 433.695 75.9811 433.025 75.9811Z" fill="#CCCCCC"/>
<path d="M433.025 93.4074H359.984C359.314 93.4074 358.671 93.1409 358.197 92.6665C357.722 92.1921 357.456 91.5487 357.456 90.8778C357.456 90.2069 357.722 89.5635 358.197 89.0891C358.671 88.6147 359.314 88.3481 359.984 88.3481H433.025C433.695 88.3481 434.338 88.6147 434.813 89.0891C435.287 89.5635 435.553 90.2069 435.553 90.8778C435.553 91.5487 435.287 92.1921 434.813 92.6665C434.338 93.1409 433.695 93.4074 433.025 93.4074Z" fill="#CCCCCC"/>
<path d="M426.517 121.037C431.507 121.037 435.552 116.989 435.552 111.997C435.552 107.004 431.507 102.957 426.517 102.957C421.527 102.957 417.481 107.004 417.481 111.997C417.481 116.989 421.527 121.037 426.517 121.037Z" fill="#34D399"/>
<path d="M426.765 107.738V106.877H427.02V107.738C427.381 107.754 427.735 107.841 428.062 107.993C428.3 108.105 428.504 108.276 428.657 108.489C428.798 108.687 428.873 108.924 428.872 109.166C428.877 109.344 428.818 109.517 428.705 109.653C428.656 109.716 428.594 109.766 428.523 109.8C428.452 109.835 428.373 109.852 428.294 109.852C428.235 109.853 428.177 109.842 428.122 109.82C428.068 109.797 428.018 109.764 427.977 109.721C427.935 109.679 427.901 109.629 427.879 109.573C427.856 109.518 427.845 109.458 427.847 109.399C427.847 109.315 427.864 109.232 427.898 109.155L428 108.94C428.036 108.85 428.053 108.753 428.051 108.656C428.054 108.506 428.006 108.359 427.915 108.24C427.816 108.114 427.682 108.021 427.53 107.971C427.365 107.916 427.194 107.882 427.02 107.869V110.968L427.077 111.002C427.609 111.284 428.093 111.649 428.51 112.084C428.694 112.303 428.841 112.551 428.943 112.818C429.045 113.077 429.097 113.353 429.099 113.631C429.103 113.991 429.009 114.346 428.827 114.657C428.649 114.96 428.387 115.206 428.074 115.365C427.743 115.527 427.386 115.631 427.02 115.671V116.595H426.765V115.688C426.396 115.685 426.03 115.61 425.689 115.467C425.349 115.341 425.049 115.125 424.82 114.844C424.618 114.591 424.509 114.277 424.511 113.954C424.504 113.727 424.574 113.504 424.709 113.322C424.763 113.244 424.835 113.179 424.919 113.134C425.002 113.09 425.096 113.066 425.191 113.065C425.248 113.063 425.305 113.072 425.358 113.093C425.411 113.114 425.459 113.146 425.499 113.186C425.54 113.226 425.571 113.274 425.592 113.327C425.613 113.38 425.623 113.437 425.621 113.494C425.602 113.669 425.529 113.833 425.412 113.964C425.351 114.044 425.298 114.132 425.256 114.224C425.227 114.295 425.212 114.372 425.214 114.45C425.215 114.656 425.285 114.857 425.415 115.018C425.556 115.198 425.742 115.338 425.955 115.422C426.199 115.517 426.459 115.563 426.72 115.558H426.765V111.858L426.442 111.671C426.137 111.493 425.903 111.346 425.743 111.229C425.586 111.115 425.441 110.986 425.31 110.843C424.984 110.497 424.804 110.038 424.806 109.563C424.804 109.267 424.878 108.975 425.021 108.716C425.161 108.457 425.366 108.239 425.616 108.084C425.964 107.874 426.359 107.755 426.765 107.738ZM426.765 107.863C426.546 107.87 426.33 107.918 426.128 108.004C425.927 108.104 425.761 108.264 425.654 108.462C425.533 108.678 425.471 108.922 425.474 109.169C425.472 109.471 425.564 109.766 425.739 110.012C425.831 110.146 425.942 110.266 426.069 110.368C426.273 110.521 426.487 110.661 426.709 110.787L426.765 110.821V107.863ZM427.02 115.546C427.166 115.534 427.31 115.504 427.449 115.456C427.561 115.412 427.666 115.351 427.759 115.274C427.934 115.125 428.069 114.936 428.153 114.722C428.252 114.486 428.302 114.233 428.3 113.977C428.278 113.566 428.147 113.169 427.923 112.825C427.698 112.481 427.387 112.202 427.02 112.016V115.546Z" fill="white"/>
<path d="M206.491 120.241C205.438 120.165 204.382 120.321 203.396 120.698C202.41 121.074 201.519 121.662 200.785 122.421C200.051 123.179 199.492 124.089 199.148 125.087C198.804 126.085 198.682 127.146 198.792 128.196L175.569 139.089L186.936 146.052L207.246 134.641C208.997 134.339 210.576 133.405 211.685 132.017C212.793 130.628 213.354 128.88 213.261 127.105C213.168 125.33 212.427 123.651 211.179 122.386C209.932 121.121 208.263 120.358 206.491 120.241Z" fill="#FFB6B6"/>
<path d="M110.394 329.816L118.414 329.816L122.23 298.865L110.393 298.865L110.394 329.816Z" fill="#FFB6B6"/>
<path d="M108.349 327.196L124.143 327.195H124.144C126.813 327.195 129.374 328.256 131.261 330.145C133.149 332.034 134.209 334.595 134.209 337.266V337.593L108.349 337.594L108.349 327.196Z" fill="#2F2E41"/>
<path d="M151.319 329.816L159.339 329.816L163.155 298.865L151.317 298.865L151.319 329.816Z" fill="#FFB6B6"/>
<path d="M149.272 327.196L165.067 327.195H165.068C167.737 327.195 170.297 328.256 172.185 330.145C174.073 332.034 175.133 334.595 175.133 337.266V337.593L149.273 337.594L149.272 327.196Z" fill="#2F2E41"/>
<path d="M156.675 169.282L160.746 178.051L168.085 256.466L162.38 323.865H149.038L133.294 217.628L125.899 321.418L107.897 320.691L104.44 179.975L156.675 169.282Z" fill="#2F2E41"/>
<path d="M91.8066 96.9195L108.683 90.0498L132.504 91.3865L153.681 99.1079L160.747 178.051C142.323 188.116 123.661 190.864 104.674 183.666L87.0518 132.249L91.8066 96.9195Z" fill="#E4E4E4"/>
<path d="M147.092 101.195L154.581 99.1078C154.581 99.1078 160.246 95.4228 162.11 106.377C163.973 117.331 173.563 134.37 173.563 134.37L189.98 125.617L197.581 142.224L171.655 157.937L144.353 130.413L147.092 101.195Z" fill="#E4E4E4"/>
<path d="M106.012 75.4238C105.103 73.359 104.609 71.1352 104.558 68.8794C104.508 66.6235 104.902 64.3799 105.718 62.2764C106.534 60.173 107.756 58.251 109.315 56.6201C110.873 54.9893 112.738 53.6816 114.801 52.7716C116.865 51.8617 119.088 51.3673 121.343 51.3168C123.597 51.2663 125.84 51.6606 127.942 52.4772C130.044 53.2937 131.966 54.5166 133.596 56.076C135.226 57.6354 136.533 59.5007 137.442 61.5655L137.54 61.7928C139.347 65.9767 139.419 70.7074 137.74 74.9443C136.908 77.0422 135.672 78.9556 134.102 80.5755C132.531 82.1953 130.657 83.4898 128.586 84.385C124.405 86.193 119.676 86.2648 115.442 84.5848C111.207 82.9048 107.813 79.6104 106.006 75.4265L106.012 75.4238Z" fill="#FFB6B6"/>
<path d="M129.327 59.6981C132.898 60.3463 138.424 62.5956 141.491 59.9569C139.976 58.1862 138.071 56.7919 135.926 55.8841C135.503 55.7438 135.112 55.5226 134.774 55.2327C133.728 54.1755 134.536 52.3538 134.058 50.9245C133.825 50.4021 133.475 49.9409 133.034 49.5772C132.593 49.2135 132.074 48.9572 131.517 48.8285C130.452 48.5098 129.337 48.4581 128.291 48.0717C125.817 47.1412 124.058 44.4784 121.521 43.7548C119.311 43.1152 117.087 44.1092 115.18 45.2692C113.273 46.4292 111.386 47.8055 109.155 48.0256C107.487 48.1778 106.432 50.9218 104.758 51.0022C101.25 51.1729 101.445 48.8598 101.186 52.5468C101.036 54.747 97.8936 59.124 97.9446 61.3433C97.9966 62.7975 97.7394 64.2378 97.7809 65.6966C97.8753 68.4748 98.989 71.1209 100.909 73.1298C102.506 74.7729 104.584 75.8812 105.928 77.7541C106.627 78.7484 107.112 79.9091 107.926 80.8087C108.74 81.7084 110.118 82.2498 111.026 81.6075C111.935 80.9652 111.952 79.5752 112.402 78.5174C112.679 77.8689 113.151 77.3231 113.753 76.9565C114.355 76.59 115.056 76.4209 115.759 76.4731C116.489 76.5685 117.177 76.8658 117.748 77.3315C118.318 77.7972 118.747 78.4129 118.986 79.1092C118.561 76.7717 117.44 74.5814 117.014 72.2421C116.588 69.9027 117.143 67.1082 119.156 66.1948C120.021 65.7924 121.188 65.6842 121.536 64.7568C121.749 64.1982 121.554 63.5382 121.636 62.9341C122.078 59.9735 126.999 59.241 129.327 59.6981Z" fill="#2F2E41"/>
<path d="M106.697 182.753C106.543 181.709 106.162 180.711 105.581 179.83C105 178.949 104.233 178.206 103.334 177.653C102.435 177.101 101.425 176.752 100.377 176.632C99.3288 176.512 98.267 176.624 97.2664 176.959L81.6035 156.638L77.2734 169.25L92.811 186.613C93.4849 188.258 94.7383 189.598 96.3338 190.379C97.9292 191.161 99.7558 191.33 101.467 190.854C103.179 190.378 104.657 189.291 105.621 187.798C106.584 186.305 106.967 184.51 106.697 182.753Z" fill="#FFB6B6"/>
<path d="M97.2168 100.752L91.8069 96.9193C91.8069 96.9193 79.4302 96.21 77.6298 106.377L54.9355 143.729L83.0735 182.568L96.7155 168.2L79.5022 148.074L93.9547 121.525L97.2168 100.752Z" fill="#E4E4E4"/>
<path d="M229.021 106.671H228.737V98.8915C228.737 98.3002 228.621 97.7147 228.395 97.1685C228.169 96.6223 227.837 96.1259 227.419 95.7078C227.001 95.2898 226.505 94.9581 225.959 94.7319C225.413 94.5056 224.828 94.3892 224.237 94.3892H207.765C207.174 94.3892 206.589 94.5056 206.043 94.7319C205.497 94.9581 205.001 95.2898 204.583 95.7078C204.165 96.1259 203.833 96.6223 203.607 97.1685C203.381 97.7147 203.265 98.3002 203.265 98.8914V141.568C203.265 142.159 203.381 142.745 203.607 143.291C203.833 143.837 204.165 144.334 204.583 144.752C205.001 145.17 205.497 145.501 206.043 145.728C206.589 145.954 207.174 146.07 207.765 146.07H224.237C224.828 146.07 225.413 145.954 225.959 145.728C226.505 145.501 227.001 145.17 227.419 144.752C227.837 144.334 228.169 143.837 228.395 143.291C228.621 142.745 228.737 142.159 228.737 141.568V112.208H229.021V106.671Z" fill="#3F3D56"/>
<path d="M224.418 95.5605H222.268C222.367 95.8031 222.405 96.0663 222.378 96.3269C222.351 96.5874 222.261 96.8374 222.115 97.0549C221.969 97.2723 221.772 97.4504 221.541 97.5736C221.31 97.6968 221.052 97.7612 220.79 97.7612H211.353C211.091 97.7612 210.833 97.6968 210.602 97.5736C210.371 97.4504 210.174 97.2723 210.028 97.0548C209.882 96.8374 209.792 96.5874 209.765 96.3268C209.738 96.0662 209.776 95.8031 209.875 95.5605H207.866C206.975 95.5605 206.12 95.9148 205.49 96.5453C204.86 97.1759 204.506 98.0311 204.506 98.9228V141.537C204.506 142.428 204.86 143.284 205.49 143.914C206.12 144.545 206.975 144.899 207.866 144.899H224.418C225.31 144.899 226.164 144.545 226.795 143.914C227.425 143.284 227.779 142.428 227.779 141.537V98.9228C227.779 98.0311 227.425 97.1759 226.795 96.5453C226.164 95.9148 225.31 95.5605 224.418 95.5605Z" fill="#34D399"/>
<path d="M373.001 80.3854H252.204C251.459 80.3845 250.745 80.0881 250.218 79.5612C249.692 79.0343 249.395 78.3199 249.395 77.5747V2.81068C249.395 2.06551 249.692 1.35109 250.218 0.82417C250.745 0.29725 251.459 0.000852804 252.204 0H373.001C373.746 0.000852807 374.46 0.29725 374.987 0.82417C375.513 1.35109 375.81 2.06551 375.811 2.81068V77.5747C375.81 78.3199 375.513 79.0343 374.987 79.5612C374.46 80.0881 373.746 80.3845 373.001 80.3854Z" fill="white"/>
<path d="M373.001 80.3854H252.204C251.459 80.3845 250.745 80.0881 250.218 79.5612C249.692 79.0343 249.395 78.3199 249.395 77.5747V2.81068C249.395 2.06551 249.692 1.35109 250.218 0.82417C250.745 0.29725 251.459 0.000852804 252.204 0H373.001C373.746 0.000852807 374.46 0.29725 374.987 0.82417C375.513 1.35109 375.81 2.06551 375.811 2.81068V77.5747C375.81 78.3199 375.513 79.0343 374.987 79.5612C374.46 80.0881 373.746 80.3845 373.001 80.3854ZM252.204 1.12427C251.757 1.12476 251.328 1.30259 251.012 1.61875C250.696 1.93491 250.519 2.36357 250.518 2.81068V77.5747C250.519 78.0218 250.696 78.4505 251.012 78.7666C251.328 79.0828 251.757 79.2606 252.204 79.2611H373.001C373.448 79.2606 373.877 79.0828 374.193 78.7666C374.509 78.4505 374.686 78.0218 374.687 77.5747V2.81068C374.686 2.36357 374.509 1.93491 374.193 1.61875C373.877 1.30259 373.448 1.12476 373.001 1.12427H252.204Z" fill="#3F3D56"/>
<path d="M349.123 24.9689H276.083C275.412 24.9689 274.769 24.7024 274.295 24.228C273.821 23.7536 273.555 23.1102 273.555 22.4393C273.555 21.7684 273.821 21.125 274.295 20.6506C274.769 20.1762 275.412 19.9097 276.083 19.9097H349.123C349.794 19.9097 350.437 20.1762 350.911 20.6506C351.385 21.125 351.652 21.7684 351.652 22.4393C351.652 23.1102 351.385 23.7536 350.911 24.228C350.437 24.7024 349.794 24.9689 349.123 24.9689Z" fill="#CCCCCC"/>
<path d="M349.123 42.3952H276.083C275.412 42.3952 274.769 42.1287 274.295 41.6543C273.821 41.1799 273.555 40.5365 273.555 39.8656C273.555 39.1947 273.821 38.5512 274.295 38.0768C274.769 37.6024 275.412 37.3359 276.083 37.3359H349.123C349.794 37.3359 350.437 37.6024 350.911 38.0768C351.385 38.5512 351.652 39.1947 351.652 39.8656C351.652 40.5365 351.385 41.1799 350.911 41.6543C350.437 42.1287 349.794 42.3952 349.123 42.3952Z" fill="#CCCCCC"/>
<path d="M342.616 70.0251C347.606 70.0251 351.651 65.9777 351.651 60.9849C351.651 55.9922 347.606 51.9448 342.616 51.9448C337.625 51.9448 333.58 55.9922 333.58 60.9849C333.58 65.9777 337.625 70.0251 342.616 70.0251Z" fill="#34D399"/>
<path d="M342.864 56.726V55.8647H343.119V56.726C343.479 56.7417 343.834 56.8283 344.161 56.981C344.398 57.0926 344.603 57.2634 344.755 57.4769C344.896 57.6745 344.972 57.9113 344.971 58.154C344.976 58.3313 344.917 58.5045 344.804 58.6413C344.755 58.7035 344.693 58.7538 344.621 58.7882C344.55 58.8226 344.472 58.8401 344.393 58.8396C344.334 58.8407 344.275 58.8297 344.221 58.8073C344.166 58.7849 344.117 58.7515 344.076 58.7093C344.033 58.6672 344 58.6168 343.977 58.5613C343.955 58.5057 343.944 58.4462 343.946 58.3863C343.946 58.3024 343.963 58.2195 343.997 58.1426L344.099 57.9273C344.135 57.8373 344.152 57.7409 344.15 57.644C344.152 57.4938 344.104 57.3471 344.014 57.2276C343.914 57.1023 343.78 57.0087 343.628 56.9583C343.463 56.9041 343.292 56.8699 343.119 56.8563V59.9558L343.175 59.9898C343.708 60.2717 344.191 60.6371 344.608 61.0721C344.793 61.2906 344.939 61.5387 345.042 61.8059C345.143 62.065 345.196 62.3407 345.197 62.619C345.202 62.9793 345.108 63.334 344.925 63.6446C344.747 63.9478 344.486 64.1936 344.172 64.3529C343.841 64.5151 343.485 64.6187 343.119 64.6589V65.5825H342.864V64.6759C342.494 64.6729 342.129 64.5978 341.788 64.4549C341.448 64.3283 341.148 64.1131 340.919 63.8316C340.717 63.5792 340.608 63.2651 340.61 62.942C340.603 62.715 340.673 62.4923 340.808 62.3101C340.862 62.2315 340.933 62.1671 341.017 62.1222C341.101 62.0773 341.194 62.0534 341.289 62.0524C341.346 62.0504 341.403 62.0601 341.456 62.081C341.509 62.1019 341.558 62.1334 341.598 62.1737C341.638 62.214 341.67 62.2622 341.691 62.3152C341.712 62.3683 341.722 62.4251 341.72 62.4821C341.701 62.6565 341.627 62.8206 341.51 62.9513C341.449 63.0322 341.397 63.1194 341.355 63.2114C341.326 63.2832 341.311 63.3601 341.312 63.4375C341.313 63.6442 341.384 63.8444 341.513 64.0056C341.654 64.1862 341.841 64.3257 342.054 64.4097C342.298 64.5048 342.557 64.5509 342.819 64.5456H342.864V60.8454L342.541 60.6584C342.235 60.481 342.002 60.3336 341.842 60.2165C341.685 60.1027 341.54 59.9736 341.408 59.8312C341.083 59.4844 340.903 59.0262 340.904 58.5506C340.903 58.2545 340.977 57.9629 341.12 57.7035C341.259 57.4447 341.464 57.2269 341.714 57.0717C342.062 56.8617 342.458 56.7428 342.864 56.726ZM342.864 56.8507C342.645 56.8575 342.428 56.9055 342.227 56.9921C342.025 57.092 341.86 57.2521 341.753 57.4502C341.632 57.6658 341.569 57.9096 341.573 58.157C341.57 58.4588 341.663 58.7537 341.838 58.9997C341.93 59.1336 342.041 59.2536 342.167 59.3561C342.372 59.5088 342.586 59.6485 342.808 59.7745L342.864 59.8085V56.8507ZM343.119 64.5342C343.265 64.522 343.409 64.4915 343.547 64.4436C343.66 64.4001 343.764 64.3389 343.857 64.2622C344.032 64.1132 344.168 63.9236 344.252 63.7099C344.35 63.4738 344.4 63.2204 344.399 62.9646C344.376 62.5542 344.246 62.1569 344.021 61.8127C343.797 61.4685 343.485 61.1897 343.119 61.0041V64.5342Z" fill="white"/>
<path d="M246.541 338H0.645394C0.474225 338 0.310066 337.932 0.189031 337.811C0.0679962 337.69 0 337.525 0 337.354C0 337.183 0.0679962 337.019 0.189031 336.898C0.310066 336.777 0.474225 336.708 0.645394 336.708H246.541C246.712 336.708 246.876 336.777 246.997 336.898C247.118 337.019 247.186 337.183 247.186 337.354C247.186 337.525 247.118 337.69 246.997 337.811C246.876 337.932 246.712 338 246.541 338Z" fill="#CACACA"/>
</g>
<defs>
<clipPath id="clip0_952_392">
<rect width="542" height="338" fill="white"/>
</clipPath>
</defs>
</svg>
